<?xml version="1.0" standalone="no"?>
<!DOCTYPE svg PUBLIC "-//W3C//DTD SVG 20010904//EN"
 "http://www.w3.org/TR/2001/REC-SVG-20010904/DTD/svg10.dtd">
<svg version="1.0" xmlns="http://www.w3.org/2000/svg"
 width="612.000000pt" height="522.000000pt" viewBox="0 0 612.000000 522.000000"
 preserveAspectRatio="xMidYMid meet">

<g transform="translate(0.000000,522.000000) scale(0.100000,-0.100000)"
fill="#000000" stroke="none">
<path d="M2565 5030 c-10 -22 -24 -45 -31 -51 -7 -6 -10 -17 -7 -26 5 -12 1
-14 -14 -9 -24 8 -55 -2 -47 -15 3 -5 -12 -9 -34 -9 -25 0 -45 -7 -58 -19 -10
-11 -45 -28 -76 -37 -32 -9 -58 -20 -58 -24 0 -5 -10 -6 -22 -2 -13 3 -19 1
-15 -5 4 -7 -13 -16 -43 -23 -28 -7 -50 -17 -50 -22 0 -6 -7 -7 -16 -4 -9 3
-12 2 -8 -5 4 -6 -1 -9 -12 -8 -11 2 -41 -7 -69 -20 -27 -13 -72 -30 -100 -38
-27 -8 -68 -22 -90 -32 -22 -10 -57 -21 -78 -25 -22 -4 -35 -11 -31 -17 3 -6
0 -9 -7 -8 -16 4 -103 -28 -135 -48 -12 -8 -26 -13 -30 -12 -5 1 -22 -3 -39
-10 -22 -9 -35 -10 -47 -2 -13 8 -16 8 -12 -3 3 -9 -3 -17 -18 -21 -13 -4 -25
-11 -28 -15 -3 -5 -32 -17 -65 -29 -33 -11 -53 -21 -45 -21 8 0 143 48 300
106 313 116 509 188 700 257 252 91 276 101 303 124 16 12 35 23 43 23 21 0
18 60 -3 76 -28 21 -39 17 -58 -26z"/>
<path d="M2770 4564 c0 -12 -6 -15 -21 -11 -33 9 -49 -3 -49 -34 0 -45 -36
-138 -62 -158 -20 -16 -26 -17 -47 -6 -19 10 -31 10 -60 0 -38 -14 -122 -40
-131 -40 -8 -1 -124 -36 -140 -42 -8 -3 -22 -7 -30 -8 -25 -4 -204 -67 -215
-76 -6 -4 -31 -11 -55 -15 -25 -3 -81 -18 -125 -33 -44 -14 -93 -24 -110 -23
-23 2 -27 0 -15 -7 12 -9 11 -11 -7 -11 -23 0 -235 -49 -242 -56 -2 -2 31 -2
75 1 l79 6 -35 -17 c-35 -16 -54 -19 -185 -28 -76 -5 -108 -13 -100 -26 3 -5
1 -11 -5 -15 -5 -3 -10 0 -11 7 0 7 -4 4 -9 -7 -11 -29 3 -38 52 -32 52 7 404
58 583 86 122 19 335 49 505 70 41 6 176 24 300 40 124 17 266 35 315 41 50 5
149 17 220 25 72 8 144 17 160 20 29 6 32 4 58 -52 14 -32 32 -78 39 -103 15
-56 16 -393 1 -412 -19 -24 -71 -156 -65 -164 4 -4 1 -3 -7 1 -10 6 -13 4 -9
-7 4 -8 0 -15 -8 -15 -7 0 -15 6 -18 13 -8 20 -36 5 -30 -14 5 -14 3 -14 -6 1
-7 10 -21 17 -33 15 -12 -1 -27 1 -32 4 -6 4 -44 3 -85 -2 -41 -5 -108 -11
-149 -14 -41 -3 -76 -8 -78 -10 -2 -2 18 -9 44 -16 103 -26 139 -42 192 -83
72 -55 182 -85 384 -103 42 -3 77 -9 77 -13 0 -3 17 -6 38 -7 59 -1 195 -15
204 -20 5 -3 52 -10 106 -15 107 -10 116 -11 282 -34 113 -16 280 -48 412 -79
36 -9 94 -20 128 -25 l62 -8 18 40 c10 22 16 46 13 53 -2 6 0 15 6 19 6 3 11
16 11 27 l0 21 -23 -21 c-27 -25 -37 -28 -37 -8 0 8 8 17 17 20 15 6 15 8 3
16 -10 6 -16 39 -21 117 -7 115 -41 278 -65 304 -21 24 -18 27 41 39 30 6 53
16 50 21 -3 5 0 19 7 31 7 13 11 28 10 35 -3 14 73 8 133 -12 22 -7 54 -15 70
-19 29 -5 29 -5 5 6 -68 30 -89 38 -97 38 -6 0 -24 7 -42 16 -17 9 -42 17 -54
18 -13 2 -32 8 -43 15 -17 11 -17 12 6 6 14 -3 34 -7 45 -9 81 -14 221 -48
229 -56 6 -6 19 -10 30 -10 17 0 18 2 6 10 -8 5 -10 10 -5 10 6 -1 19 -7 29
-15 25 -19 40 -19 33 -1 -3 7 0 13 6 13 39 -1 47 4 47 31 l-1 27 -14 -25 c-14
-24 -14 -24 -9 15 5 39 5 40 -10 15 l-15 -25 -1 30 c0 18 -3 25 -8 18 -9 -14
-52 -6 -52 9 0 5 -17 16 -37 24 -21 9 -51 22 -68 29 -16 7 -42 17 -57 23 -16
7 -28 16 -28 22 0 5 -8 10 -18 10 -10 0 -28 7 -40 16 -12 8 -22 11 -22 6 0
-13 -36 -3 -50 13 -6 8 -27 10 -60 7 -44 -4 -50 -2 -50 15 0 22 -53 45 -86 37
-12 -3 -26 1 -33 10 -16 19 -41 21 -41 4 0 -6 -10 -2 -22 10 -17 15 -27 18
-40 11 -12 -6 -18 -7 -18 0 0 13 -56 24 -112 22 -27 -1 -48 2 -48 7 0 6 -16
13 -36 16 -19 4 -37 13 -40 21 -4 10 -18 12 -53 8 -34 -4 -55 -1 -72 10 -13 8
-45 18 -71 22 -27 3 -48 10 -48 14 0 5 -22 11 -48 15 -26 3 -66 15 -88 26 -21
11 -57 23 -79 26 -50 7 -185 54 -185 64 0 5 -18 11 -40 15 -30 5 -40 11 -40
26 0 10 -7 19 -15 19 -8 0 -15 -4 -15 -10 0 -5 -11 -10 -25 -10 -26 0 -34 15
-12 23 6 3 -3 3 -22 0 -21 -4 -36 -1 -41 6 -4 7 -20 14 -36 16 -55 7 -89 18
-97 31 -4 8 -19 14 -32 14 -14 0 -29 8 -35 20 -6 11 -21 20 -35 20 -13 0 -27
5 -30 11 -5 7 -13 4 -26 -7 -15 -14 -21 -15 -34 -4 -21 17 -185 27 -185 11 0
-17 -76 -13 -90 4 -7 8 -25 15 -41 15 -16 0 -29 5 -29 10 0 6 -7 10 -15 10 -8
0 -15 -7 -15 -16z m708 -278 c48 -19 141 -60 207 -91 279 -131 321 -155 391
-221 38 -35 72 -64 77 -64 4 0 7 -6 7 -14 0 -8 8 -17 18 -21 11 -3 24 -17 30
-30 6 -14 18 -25 25 -25 7 0 24 -13 37 -30 14 -16 33 -39 42 -51 10 -12 20
-31 24 -43 7 -23 110 -125 147 -145 28 -15 57 -61 57 -90 0 -11 -12 -32 -27
-48 -24 -23 -28 -24 -31 -10 -3 13 -14 17 -43 17 -24 0 -39 5 -39 13 0 6 -9 1
-20 -13 l-20 -25 -20 25 c-11 14 -20 35 -20 48 0 12 -4 22 -10 22 -5 0 -10 -7
-10 -15 0 -8 -7 -15 -16 -15 -12 0 -15 6 -10 20 3 11 9 29 12 40 5 14 2 20
-10 20 -9 0 -16 -6 -16 -14 0 -16 -27 -29 -41 -20 -5 3 -16 18 -24 35 -17 31
-35 39 -35 14 0 -30 -17 -14 -29 27 l-13 42 -19 -25 -19 -24 0 23 c0 24 -51
62 -82 62 -10 0 -23 9 -30 20 -7 11 -21 20 -30 20 -10 0 -18 6 -18 13 0 8 -18
20 -40 27 -22 7 -45 19 -51 27 -6 7 -24 13 -40 13 -18 0 -29 5 -29 13 0 8 -18
20 -40 27 -22 7 -40 19 -40 26 0 15 -67 -20 -87 -46 -11 -13 -12 -11 -13 12 0
15 -5 30 -11 34 -8 4 -7 9 2 15 10 6 11 11 3 17 -6 4 -14 29 -17 56 -3 28 -12
55 -20 61 -8 6 -18 35 -22 65 -7 48 -63 176 -84 190 -5 3 -13 15 -20 28 -7 14
-21 22 -36 22 -14 0 -25 5 -25 10 0 18 39 11 128 -24z m-193 -6 c4 -6 -22 -10
-72 -9 -61 1 -70 3 -43 9 53 11 108 11 115 0z m-1852 -287 c-7 -2 -19 -2 -25
0 -7 3 -2 5 12 5 14 0 19 -2 13 -5z m-70 -10 c-7 -2 -19 -2 -25 0 -7 3 -2 5
12 5 14 0 19 -2 13 -5z m-3 -33 c0 -5 -7 -10 -15 -10 -8 0 -15 5 -15 10 0 6 7
10 15 10 8 0 15 -4 15 -10z m2237 -192 c-3 -8 -6 -5 -6 6 -1 11 2 17 5 13 3
-3 4 -12 1 -19z m1290 -370 c-3 -8 -6 -5 -6 6 -1 11 2 17 5 13 3 -3 4 -12 1
-19z"/>
<path d="M1158 4423 c7 -3 16 -2 19 1 4 3 -2 6 -13 5 -11 0 -14 -3 -6 -6z"/>
<path d="M2605 4391 c-3 -5 -1 -12 5 -16 12 -7 30 2 30 16 0 12 -27 12 -35 0z"/>
<path d="M998 4353 c7 -3 16 -2 19 1 4 3 -2 6 -13 5 -11 0 -14 -3 -6 -6z"/>
<path d="M950 3920 c-24 -15 -7 -18 20 -3 14 7 18 13 10 13 -8 0 -22 -4 -30
-10z"/>
<path d="M5310 3759 c0 -5 5 -7 10 -4 6 3 10 8 10 11 0 2 -4 4 -10 4 -5 0 -10
-5 -10 -11z"/>
<path d="M2850 3450 l-35 -7 32 -2 c17 0 35 4 38 9 3 6 5 9 3 9 -2 -1 -19 -5
-38 -9z"/>
<path d="M2659 3436 c-2 -2 -37 -7 -77 -10 -85 -8 -88 -8 -382 -42 -124 -14
-248 -27 -276 -29 -28 -1 -61 -8 -74 -15 -14 -8 -20 -8 -16 -1 5 7 -4 11 -23
11 -17 0 -31 -3 -31 -7 0 -5 -26 -8 -58 -9 -104 -2 -323 -27 -310 -36 18 -11
-3 -11 -34 0 -13 5 -34 5 -48 1 -21 -6 -22 -7 -5 -9 13 -1 5 -8 -25 -21 l-45
-19 40 5 c22 3 59 6 82 8 23 2 50 10 59 18 15 11 16 12 9 0 -6 -11 -1 -13 26
-8 19 4 108 16 199 27 91 11 217 28 280 36 63 9 122 16 130 16 32 1 460 55
610 77 52 8 53 9 14 10 -22 0 -43 -1 -45 -3z"/>
<path d="M2908 3398 c-16 -5 -28 -14 -28 -19 0 -10 50 -1 63 11 15 13 -7 18
-35 8z"/>
<path d="M2058 3253 c12 -2 30 -2 40 0 9 3 -1 5 -23 4 -22 0 -30 -2 -17 -4z"/>
<path d="M2906 3041 c-3 -5 0 -11 8 -14 15 -6 26 1 26 15 0 11 -27 10 -34 -1z"/>
<path d="M2430 2961 c-25 -13 -158 -30 -395 -51 -66 -6 -165 -15 -220 -20 -55
-5 -190 -18 -300 -30 -110 -11 -263 -27 -340 -35 -77 -8 -156 -19 -175 -24
-19 -5 -83 -12 -142 -16 -98 -6 -108 -9 -108 -26 0 -17 5 -19 33 -15 17 3 147
12 287 21 140 8 289 20 330 25 109 13 217 21 365 24 78 2 154 9 190 19 33 9
143 23 245 31 102 9 206 18 231 20 l47 5 12 -80 c15 -93 10 -172 -16 -253
l-18 -57 -40 5 c-28 4 -33 3 -16 -2 37 -12 -313 -31 -760 -42 -483 -12 -881
-27 -887 -34 -14 -14 14 -26 58 -26 44 0 51 -3 59 -25 8 -20 16 -25 45 -25 19
0 35 4 35 10 0 5 7 7 15 4 8 -4 15 -1 15 4 0 6 24 16 53 22 56 12 505 49 523
42 13 -4 -5 -52 -19 -52 -5 0 -5 5 -2 10 3 6 -2 10 -11 10 -16 0 -16 -1 1 -20
12 -13 31 -20 56 -20 34 0 40 -4 46 -27 10 -36 10 -252 0 -324 -8 -55 -8 -55
-39 -51 -26 4 -30 2 -25 -12 4 -11 3 -15 -4 -10 -6 4 -15 1 -19 -7 -6 -9 -12
-10 -22 -2 -7 6 -56 16 -108 22 -52 6 -108 13 -125 16 -82 12 -340 34 -412 34
-64 0 -83 -3 -83 -13 0 -16 26 -20 220 -36 163 -14 486 -64 560 -86 34 -11
188 -8 345 5 76 7 228 10 365 7 251 -5 271 -6 397 -25 107 -15 233 -19 324
-10 41 5 133 10 204 13 72 3 159 10 195 15 36 6 94 9 130 7 49 -3 55 -2 25 4
-56 10 408 2 585 -11 158 -11 270 -28 270 -41 0 -4 16 -8 35 -8 53 0 44 -25
-12 -37 -27 -6 -65 -8 -86 -6 -21 3 -196 -3 -389 -12 -255 -13 -352 -15 -357
-7 -4 7 -64 14 -156 17 -83 4 -156 8 -163 10 -7 3 -11 1 -7 -4 5 -9 -126 -23
-200 -21 -122 3 -195 -2 -195 -11 0 -8 -24 -9 -76 -4 -60 5 -78 4 -85 -7 -6
-9 -33 -13 -86 -14 -123 -2 -325 -13 -357 -20 -19 -4 -31 -2 -37 7 -7 11 -11
11 -17 2 -5 -8 -30 -11 -75 -9 -37 2 -67 0 -67 -4 0 -4 -34 -11 -76 -15 -57
-5 -79 -4 -84 6 -10 15 -22 -55 -24 -139 -4 -111 -6 -119 -17 -99 -6 10 -22
17 -39 17 -29 0 -30 -2 -30 -48 0 -59 12 -72 65 -72 38 0 334 -62 595 -125 62
-15 135 -25 178 -26 64 0 77 -3 97 -23 100 -100 112 -665 18 -825 l-26 -44
-13 25 c-15 28 -84 57 -244 101 -346 95 -682 191 -725 206 -27 10 -106 32
-175 49 -69 18 -205 54 -303 82 -98 27 -184 50 -190 50 -7 0 -25 7 -41 15 -49
26 -135 45 -143 32 -5 -8 -9 -4 -13 10 -5 21 -6 22 -40 7 -58 -26 -65 -31 -65
-45 0 -18 88 -49 325 -114 220 -60 537 -151 870 -251 124 -37 245 -73 270 -79
25 -7 122 -34 215 -59 94 -26 178 -51 188 -57 32 -17 79 -19 152 -4 38 8 120
23 180 34 61 11 218 43 350 70 240 50 351 73 1035 216 741 155 1013 219 1046
246 22 18 64 100 57 112 -3 5 -1 7 5 3 23 -14 62 162 62 284 0 83 -16 189 -31
205 -5 5 -9 17 -9 26 0 10 -11 31 -24 47 -23 26 -29 28 -73 23 -26 -3 -63 -5
-81 -3 l-33 3 27 21 c51 40 76 147 52 217 -7 20 -12 39 -13 43 0 4 -6 13 -12
19 -11 11 -13 9 -13 -6 0 -17 -3 -16 -23 8 -13 16 -37 32 -57 36 l-35 8 44 9
c37 8 47 15 64 47 51 98 28 382 -29 360 -10 -4 -13 0 -8 13 4 14 3 15 -4 6 -7
-11 -18 -11 -53 -2 -24 7 -52 16 -61 21 -11 6 -18 6 -18 0 0 -6 -23 -7 -55 -4
-38 4 -55 2 -55 -6 0 -11 -15 -10 -77 6 -24 6 -20 8 27 13 l55 7 -63 1 c-35 1
-61 -2 -58 -7 9 -14 -66 -21 -149 -14 -58 4 -73 9 -59 16 11 6 33 6 64 -1 50
-12 123 -6 114 9 -3 5 51 9 119 9 l124 0 13 39 c20 60 9 187 -21 247 l-24 48
-71 12 c-39 6 -82 19 -96 28 -20 13 -77 20 -259 31 -416 27 -531 36 -638 51
-89 12 -260 31 -446 50 -22 2 -92 10 -155 19 -63 8 -150 17 -194 20 -43 3 -87
10 -98 16 -10 5 -70 10 -133 10 -63 0 -115 3 -115 7 0 4 -35 8 -77 10 -43 1
-143 5 -223 9 -114 6 -149 5 -170 -6z m-785 -557 c13 -29 15 -43 7 -68 l-10
-31 -2 33 c-3 42 -4 44 -17 67 -7 11 -13 14 -13 8 0 -7 -4 -13 -9 -13 -7 0 -8
17 -2 38 1 1 7 2 15 2 7 0 21 -16 31 -36z m3218 -41 c-13 -2 -33 -2 -45 0 -13
2 -3 4 22 4 25 0 35 -2 23 -4z m-383 -13 c0 -5 -4 -10 -10 -10 -5 0 -10 5 -10
10 0 6 5 10 10 10 6 0 10 -4 10 -10z m50 0 c0 -5 -4 -10 -10 -10 -5 0 -10 5
-10 10 0 6 5 10 10 10 6 0 10 -4 10 -10z m119 1 c8 -5 -5 -7 -35 -4 -27 3 -51
7 -53 9 -9 8 75 3 88 -5z m-249 -21 c0 -22 -25 -18 -34 6 -3 9 1 14 14 14 13
0 20 -7 20 -20z m-2526 -922 c-3 -12 -13 -28 -20 -36 -12 -11 -14 -11 -14 2 0
9 5 16 10 16 6 0 10 9 10 20 0 11 5 20 11 20 6 0 8 -9 3 -22z m889 -172 c15
-14 23 -27 19 -30 -5 -3 -15 4 -22 15 -8 10 -20 19 -27 19 -7 0 -13 5 -13 10
0 17 16 11 43 -14z m27 -84 c0 -15 -2 -15 -10 -2 -13 20 -13 33 0 25 6 -3 10
-14 10 -23z"/>
<path d="M1367 2374 c-2 -2 -53 -6 -113 -9 -196 -9 -295 -18 -301 -28 -3 -5
10 -7 33 -3 22 3 107 8 189 11 83 3 169 8 193 11 28 4 52 2 67 -6 20 -11 30
-10 57 3 18 9 29 17 23 18 -24 4 -145 6 -148 3z"/>
<path d="M840 2330 c-13 -8 -12 -10 3 -10 9 0 17 5 17 10 0 12 -1 12 -20 0z"/>
<path d="M1315 2000 c3 -5 11 -10 16 -10 6 0 7 5 4 10 -3 6 -11 10 -16 10 -6
0 -7 -4 -4 -10z"/>
<path d="M1765 1820 c-24 -46 -20 -50 37 -45 28 3 53 7 56 10 6 6 -54 65 -67
65 -6 0 -17 -13 -26 -30z"/>
<path d="M1870 1766 c0 -8 4 -17 9 -20 5 -4 7 3 4 14 -6 23 -13 26 -13 6z"/>
<path d="M468 1693 c7 -3 16 -2 19 1 4 3 -2 6 -13 5 -11 0 -14 -3 -6 -6z"/>
<path d="M841 1584 c-9 -20 -6 -26 16 -44 14 -11 37 -21 52 -21 14 -1 35 -3
46 -4 11 -2 58 -6 105 -9 97 -8 164 -19 515 -86 248 -48 225 -46 225 -22 0 18
-5 21 -27 16 -16 -3 -59 2 -98 11 -38 8 -146 31 -240 50 -93 19 -188 40 -210
46 -65 17 -104 26 -215 48 -58 12 -117 25 -131 30 -23 7 -29 5 -38 -15z"/>
</g>
</svg>
